<svg height="128" viewBox="0 0 33.867 33.867" width="128" xmlns="http://www.w3.org/2000/svg">
  <style type="text/css">
    svg { background: inherit; fill: #000; }
    svg > path , g { stroke: #000; }
    @media (prefers-color-scheme: dark) {
      svg { fill: #CCC; }
      svg > path , g { stroke: #CCC; }
    }
  </style>
  <g fill="none" stroke="#444" stroke-linejoin="round" stroke-width="1.058">
    <path d="M26.726 7.14h6.529V.613h-6.529z"/>
    <path d="M26.726 7.14h6.529V.613h-6.529zm-13.056 0h6.528V.613h-6.529z"/>
    <path d="M13.67 7.14h6.528V.613h-6.529zm-13.058 0h6.529V.613H.612z"/>
    <path d="M.612 7.14h6.529V.613H.612zm26.114 26.115h6.529v-6.529h-6.529z"/>
    <path d="M26.726 33.255h6.529v-6.529h-6.529zm-13.056 0h6.528v-6.529h-6.529z"/>
    <path d="M13.67 33.255h6.528v-6.529h-6.529zm-13.058 0h6.529v-6.529H.612z"/>
    <path d="M.612 33.255h6.529v-6.529H.612zM13.67 20.198h6.528v-6.529h-6.529z"/>
    <path d="M13.67 20.198h6.528v-6.529h-6.529zm6.528-16.322h6.528m-19.586 0h6.53M7.14 7.14l6.53 6.53m6.528 6.528l6.528 6.528M7.14 29.99h6.53m6.528 0h6.528"/>
  </g>
</svg>
