<svg xmlns:xlink="http://www.w3.org/1999/xlink" width="243.064" height="200.88" viewBox="0 0 182.298 150.66" xmlns="http://www.w3.org/2000/svg">
  <defs>
    <style>
      *{stroke-linejoin:round;stroke-linecap:butt}
    </style>
  </defs>
  <g id="figure_1">
    <path d="M0 150.66h182.298V0H0z" fill="#fff" id="patch_1"/>
    <g id="axes_1">
      <path d="M31.255 117.11h142.043V17.32H31.255z" fill="#fff" id="patch_2"/>
      <g id="matplotlib.axis_1">
        <g id="xtick_1">
          <path d="M52.06 117.11V17.32" clip-path="url(#p881b2e6b17)" fill="none" stroke-dasharray=".05,.4" stroke="#000" stroke-width=".25" id="line2d_1"/>
          <g id="line2d_2">
            <defs>
              <path id="m7e832739e1" d="M0 0v3.5" stroke="#000" stroke-width=".75"/>
            </defs>
            <use xlink:href="#m7e832739e1" x="52.059" y="117.111" stroke="#000" stroke-width=".75"/>
          </g>
          <g transform="matrix(.07 0 0 -.07 46.67 129.43)" id="text_1">
            <defs>
              <path id="DejaVuSans-30" d="M2034 4250q-487 0-733-480-245-479-245-1442 0-959 245-1439 246-480 733-480 491 0 736 480 246 480 246 1439 0 963-246 1442-245 480-736 480zm0 500q785 0 1199-621 414-620 414-1801 0-1178-414-1799Q2819-91 2034-91q-784 0-1198 620-414 621-414 1799 0 1181 414 1801 414 621 1198 621z" transform="scale(.01563)"/>
              <path id="DejaVuSans-2e" d="M684 794h660V0H684v794z" transform="scale(.01563)"/>
              <path id="DejaVuSans-32" d="M1228 531h2203V0H469v531q359 372 979 998 621 627 780 809 303 340 423 576 121 236 121 464 0 372-261 606-261 235-680 235-297 0-627-103-329-103-704-313v638q381 153 712 231 332 78 607 78 725 0 1156-363 431-362 431-968 0-288-108-546-107-257-392-607-78-91-497-524-418-433-1181-1211z" transform="scale(.01563)"/>
            </defs>
            <use xlink:href="#DejaVuSans-30" transform="translate(0 .781)"/>
            <use xlink:href="#DejaVuSans-2e" transform="translate(63.623 .781)"/>
            <use xlink:href="#DejaVuSans-32" transform="translate(89.91 .781)"/>
          </g>
        </g>
        <g id="xtick_2">
          <path d="M80.755 117.11V17.32" clip-path="url(#p881b2e6b17)" fill="none" stroke-dasharray=".05,.4" stroke="#000" stroke-width=".25" id="line2d_3"/>
          <use xlink:href="#m7e832739e1" x="80.755" y="117.111" stroke="#000" stroke-width=".75" id="line2d_4"/>
          <g transform="matrix(.07 0 0 -.07 75.155 129.43)" id="text_2">
            <defs>
              <path id="DejaVuSans-34" d="M2419 4116L825 1625h1594v2491zm-166 550h794V1625h666v-525h-666V0h-628v1100H313v609l1940 2957z" transform="scale(.01563)"/>
            </defs>
            <use xlink:href="#DejaVuSans-30" transform="translate(0 .781)"/>
            <use xlink:href="#DejaVuSans-2e" transform="translate(63.623 .781)"/>
            <use xlink:href="#DejaVuSans-34" transform="translate(95.41 .781)"/>
          </g>
        </g>
        <g id="xtick_3">
          <path d="M109.45 117.11V17.32" clip-path="url(#p881b2e6b17)" fill="none" stroke-dasharray=".05,.4" stroke="#000" stroke-width=".25" id="line2d_5"/>
          <use xlink:href="#m7e832739e1" x="109.45" y="117.111" stroke="#000" stroke-width=".75" id="line2d_6"/>
          <g transform="matrix(.07 0 0 -.07 103.85 129.43)" id="text_3">
            <defs>
              <path id="DejaVuSans-36" d="M2113 2584q-425 0-674-291-248-290-248-796 0-503 248-796 249-292 674-292t673 292q248 293 248 796 0 506-248 796-248 291-673 291zm1253 1979v-575q-238 112-480 171-242 60-480 60-625 0-955-422-329-422-376-1275 184 272 462 417 279 145 613 145 703 0 1111-427 408-426 408-1160 0-719-425-1154Q2819-91 2113-91q-810 0-1238 620-428 621-428 1799 0 1106 525 1764t1409 658q238 0 480-47t505-140z" transform="scale(.01563)"/>
            </defs>
            <use xlink:href="#DejaVuSans-30" transform="translate(0 .781)"/>
            <use xlink:href="#DejaVuSans-2e" transform="translate(63.623 .781)"/>
            <use xlink:href="#DejaVuSans-36" transform="translate(95.41 .781)"/>
          </g>
        </g>
        <g id="xtick_4">
          <path d="M138.146 117.11V17.32" clip-path="url(#p881b2e6b17)" fill="none" stroke-dasharray=".05,.4" stroke="#000" stroke-width=".25" id="line2d_7"/>
          <use xlink:href="#m7e832739e1" x="138.146" y="117.111" stroke="#000" stroke-width=".75" id="line2d_8"/>
          <g transform="matrix(.07 0 0 -.07 132.651 129.43)" id="text_4">
            <defs>
              <path id="DejaVuSans-38" d="M2034 2216q-450 0-708-241-257-241-257-662 0-422 257-663 258-241 708-241t709 242q260 243 260 662 0 421-258 662-257 241-711 241zm-631 268q-406 100-633 378-226 279-226 679 0 559 398 884 399 325 1092 325 697 0 1094-325t397-884q0-400-227-679-226-278-629-378 456-106 710-416 255-309 255-755 0-679-414-1042Q2806-91 2034-91q-771 0-1186 362-414 363-414 1042 0 446 256 755 257 310 713 416zm-231 997q0-362 226-565 227-203 636-203 407 0 636 203 230 203 230 565 0 363-230 566-229 203-636 203-409 0-636-203-226-203-226-566z" transform="scale(.01563)"/>
            </defs>
            <use xlink:href="#DejaVuSans-30" transform="translate(0 .781)"/>
            <use xlink:href="#DejaVuSans-2e" transform="translate(63.623 .781)"/>
            <use xlink:href="#DejaVuSans-38" transform="translate(92.785 .781)"/>
          </g>
        </g>
        <g id="xtick_5">
          <path d="M166.842 117.11V17.32" clip-path="url(#p881b2e6b17)" fill="none" stroke-dasharray=".05,.4" stroke="#000" stroke-width=".25" id="line2d_9"/>
          <use xlink:href="#m7e832739e1" x="166.842" y="117.111" stroke="#000" stroke-width=".75" id="line2d_10"/>
          <g transform="matrix(.07 0 0 -.07 161.242 129.43)" id="text_5">
            <defs>
              <path id="DejaVuSans-31" d="M794 531h1031v3560L703 3866v575l1116 225h631V531h1031V0H794v531z" transform="scale(.01563)"/>
            </defs>
            <use xlink:href="#DejaVuSans-31" transform="translate(0 .781)"/>
            <use xlink:href="#DejaVuSans-2e" transform="translate(63.623 .781)"/>
            <use xlink:href="#DejaVuSans-30" transform="translate(95.41 .781)"/>
          </g>
        </g>
        <g transform="matrix(.07 0 0 -.07 82.036 140.204)" id="text_6">
          <defs>
            <path id="DejaVuSans-53" d="M3425 4513v-616q-359 172-678 256-319 85-616 85-515 0-795-200t-280-569q0-310 186-468 186-157 705-254l381-78q706-135 1042-474t336-907q0-679-455-1029Q2797-91 1919-91q-331 0-705 75-373 75-773 222v650q384-215 753-325 369-109 725-109 540 0 834 212 294 213 294 607 0 343-211 537t-692 291l-385 75q-706 140-1022 440-315 300-315 835 0 619 436 975t1201 356q329 0 669-60 341-59 697-177z" transform="scale(.01563)"/>
            <path id="DejaVuSans-74" d="M1172 4494v-994h1184v-447H1172V1153q0-428 117-550t477-122h590V0h-590q-666 0-919 248-253 249-253 905v1900H172v447h422v994h578z" transform="scale(.01563)"/>
            <path id="DejaVuSans-61" d="M2194 1759q-697 0-966-159t-269-544q0-306 202-486 202-179 548-179 479 0 768 339t289 901v128h-572zm1147 238V0h-575v531q-197-318-491-470T1556-91q-537 0-855 302-317 302-317 808 0 590 395 890 396 300 1180 300h807v57q0 397-261 614t-733 217q-300 0-585-72-284-72-546-216v532q315 122 612 182 297 61 578 61 760 0 1135-394 375-393 375-1193z" transform="scale(.01563)"/>
            <path id="DejaVuSans-65" d="M3597 1894v-281H953q38-594 358-905t892-311q331 0 642 81t618 244V178Q3153 47 2828-22t-659-69q-838 0-1327 487-489 488-489 1320 0 859 464 1363 464 505 1252 505 706 0 1117-455 411-454 411-1235zm-575 169q-6 471-264 752-258 282-683 282-481 0-770-272t-333-766l2050 4z" transform="scale(.01563)"/>
            <path id="DejaVuSans-6d" d="M3328 2828q216 388 516 572t706 184q547 0 844-383 297-382 297-1088V0h-578v2094q0 503-179 746-178 244-543 244-447 0-707-297-259-296-259-809V0h-578v2094q0 506-178 748t-550 242q-441 0-701-298-259-298-259-808V0H581v3500h578v-544q197 322 472 475t653 153q382 0 649-194 267-193 395-562z" transform="scale(.01563)"/>
            <path id="DejaVuSans-6e" d="M3513 2113V0h-575v2094q0 497-194 743-194 247-581 247-466 0-735-297-269-296-269-809V0H581v3500h578v-544q207 316 486 472 280 156 646 156 603 0 912-373 310-373 310-1098z" transform="scale(.01563)"/>
            <path id="DejaVuSans-73" d="M2834 3397v-544q-243 125-506 187-262 63-544 63-428 0-642-131t-214-394q0-200 153-314t616-217l197-44q612-131 870-370t258-667q0-488-386-773Q2250-91 1575-91q-281 0-586 55T347 128v594q319-166 628-249 309-82 613-82 406 0 624 139 219 139 219 392 0 234-158 359-157 125-692 241l-200 47q-534 112-772 345-237 233-237 639 0 494 350 762 350 269 994 269 318 0 599-47 282-46 519-140z" transform="scale(.01563)"/>
          </defs>
          <use xlink:href="#DejaVuSans-53"/>
          <use xlink:href="#DejaVuSans-74" x="63.477"/>
          <use xlink:href="#DejaVuSans-61" x="102.686"/>
          <use xlink:href="#DejaVuSans-74" x="163.965"/>
          <use xlink:href="#DejaVuSans-65" x="203.174"/>
          <use xlink:href="#DejaVuSans-6d" x="264.697"/>
          <use xlink:href="#DejaVuSans-65" x="362.109"/>
          <use xlink:href="#DejaVuSans-6e" x="423.633"/>
          <use xlink:href="#DejaVuSans-74" x="487.012"/>
          <use xlink:href="#DejaVuSans-73" x="526.221"/>
        </g>
        <g transform="matrix(.07 0 0 -.07 155.098 139.204)" id="text_7">
          <defs>
            <path id="DejaVuSans-d7" d="M4488 3438L3059 2003 4488 575l-372-378-1435 1434L1247 197 878 575l1425 1428L878 3438l369 378 1434-1435 1435 1435 372-378z" transform="scale(.01563)"/>
            <path id="DejaVuSans-37" d="M525 4666h3000v-269L1831 0h-659l1594 4134H525v532z" transform="scale(.01563)"/>
          </defs>
          <use xlink:href="#DejaVuSans-d7" transform="translate(0 .684)"/>
          <use xlink:href="#DejaVuSans-31" transform="translate(83.79 .684)"/>
          <use xlink:href="#DejaVuSans-30" transform="translate(147.412 .684)"/>
          <use xlink:href="#DejaVuSans-37" transform="matrix(.7 0 0 .7 211.992 38.966)"/>
        </g>
      </g>
      <g id="matplotlib.axis_2">
        <g id="ytick_1">
          <path d="M31.255 99.453h142.043" clip-path="url(#p881b2e6b17)" fill="none" stroke-dasharray=".05,.4" stroke="#000" stroke-width=".25" id="line2d_11"/>
          <g id="line2d_12">
            <defs>
              <path id="m09346f1a52" d="M0 0h-3.5" stroke="#000" stroke-width=".75"/>
            </defs>
            <use xlink:href="#m09346f1a52" x="31.255" y="99.453" stroke="#000" stroke-width=".75"/>
          </g>
          <use xlink:href="#DejaVuSans-32" transform="matrix(.07 0 0 -.07 19.775 102.058)" id="text_8"/>
        </g>
        <g id="ytick_2">
          <path d="M31.255 76.065h142.043" clip-path="url(#p881b2e6b17)" fill="none" stroke-dasharray=".05,.4" stroke="#000" stroke-width=".25" id="line2d_13"/>
          <use xlink:href="#m09346f1a52" x="31.255" y="76.065" stroke="#000" stroke-width=".75" id="line2d_14"/>
          <use xlink:href="#DejaVuSans-34" transform="matrix(.07 0 0 -.07 19.775 78.718)" id="text_9"/>
        </g>
        <g id="ytick_3">
          <path d="M31.255 52.676h142.043" clip-path="url(#p881b2e6b17)" fill="none" stroke-dasharray=".05,.4" stroke="#000" stroke-width=".25" id="line2d_15"/>
          <use xlink:href="#m09346f1a52" x="31.255" y="52.676" stroke="#000" stroke-width=".75" id="line2d_16"/>
          <use xlink:href="#DejaVuSans-36" transform="matrix(.07 0 0 -.07 19.775 55.28)" id="text_10"/>
        </g>
        <g id="ytick_4">
          <path d="M31.255 29.287h142.043" clip-path="url(#p881b2e6b17)" fill="none" stroke-dasharray=".05,.4" stroke="#000" stroke-width=".25" id="line2d_17"/>
          <use xlink:href="#m09346f1a52" x="31.255" y="29.287" stroke="#000" stroke-width=".75" id="line2d_18"/>
          <use xlink:href="#DejaVuSans-38" transform="matrix(.07 0 0 -.07 19.775 31.892)" id="text_11"/>
        </g>
        <g transform="matrix(0 -.07 -.07 0 14.319 92.683)" id="text_12">
          <defs>
            <path id="DejaVuSans-2f" d="M1625 4666h531L531-594H0l1625 5260z" transform="scale(.01563)"/>
          </defs>
          <use xlink:href="#DejaVuSans-53"/>
          <use xlink:href="#DejaVuSans-74" x="63.477"/>
          <use xlink:href="#DejaVuSans-61" x="102.686"/>
          <use xlink:href="#DejaVuSans-74" x="163.965"/>
          <use xlink:href="#DejaVuSans-65" x="203.174"/>
          <use xlink:href="#DejaVuSans-6d" x="264.697"/>
          <use xlink:href="#DejaVuSans-65" x="362.109"/>
          <use xlink:href="#DejaVuSans-6e" x="423.633"/>
          <use xlink:href="#DejaVuSans-74" x="487.012"/>
          <use xlink:href="#DejaVuSans-73" x="526.221"/>
          <use xlink:href="#DejaVuSans-20" x="578.32"/>
          <use xlink:href="#DejaVuSans-2f" x="610.107"/>
          <use xlink:href="#DejaVuSans-20" x="643.799"/>
          <use xlink:href="#DejaVuSans-73" x="675.586"/>
        </g>
        <g transform="matrix(.07 0 0 -.07 31.255 14.319)" id="text_13">
          <defs>
            <path id="DejaVuSans-35" d="M691 4666h2478v-532H1269V2991q137 47 274 70 138 23 276 23 781 0 1237-428 457-428 457-1159 0-753-469-1171Q2575-91 1722-91q-294 0-599 50Q819 9 494 109v635q281-153 581-228t634-75q541 0 856 284 316 284 316 772 0 487-316 771-315 285-856 285-253 0-505-56-251-56-513-175v2344z" transform="scale(.01563)"/>
          </defs>
          <use xlink:href="#DejaVuSans-d7" transform="translate(0 .684)"/>
          <use xlink:href="#DejaVuSans-31" transform="translate(83.79 .684)"/>
          <use xlink:href="#DejaVuSans-30" transform="translate(147.412 .684)"/>
          <use xlink:href="#DejaVuSans-35" transform="matrix(.7 0 0 .7 211.992 38.966)"/>
        </g>
      </g>
      <g id="line2d_19">
        <path d="M37.711 25.39l14.348-1.234 14.348.962 14.348-2.014 14.348-1.25 14.347 2.163 14.348.789 14.348-1.915 14.348 2.045 14.348.858" clip-path="url(#p881b2e6b17)" fill="none" stroke="#1f77b4" stroke-linecap="square"/>
        <defs>
          <path id="m05a9ecb041" d="M0 1.5a1.5 1.5 0 100-3 1.5 1.5 0 000 3z" stroke="#1f77b4"/>
        </defs>
        <g clip-path="url(#p881b2e6b17)" fill="#1f77b4" stroke="#1f77b4">
          <use xlink:href="#m05a9ecb041" x="37.711" y="25.389"/>
          <use xlink:href="#m05a9ecb041" x="52.059" y="24.156"/>
          <use xlink:href="#m05a9ecb041" x="66.407" y="25.118"/>
          <use xlink:href="#m05a9ecb041" x="80.755" y="23.104"/>
          <use xlink:href="#m05a9ecb041" x="95.103" y="21.855"/>
          <use xlink:href="#m05a9ecb041" x="109.45" y="24.017"/>
          <use xlink:href="#m05a9ecb041" x="123.798" y="24.806"/>
          <use xlink:href="#m05a9ecb041" x="138.146" y="22.891"/>
          <use xlink:href="#m05a9ecb041" x="152.494" y="24.936"/>
          <use xlink:href="#m05a9ecb041" x="166.842" y="25.794"/>
        </g>
      </g>
      <g id="line2d_20">
        <path d="M37.711 108.615l14.348.289 14.348.413 14.348-.097 14.348.488 14.347-.195 14.348.187 14.348.242 14.348-.21 14.348.092" clip-path="url(#p881b2e6b17)" fill="none" stroke-dasharray="2,.75" stroke="#ff7f0e"/>
        <defs>
          <path id="m2f1d957fc5" d="M-1.5 1.5h3v-3h-3z" stroke="#ff7f0e" stroke-linejoin="miter"/>
        </defs>
        <g clip-path="url(#p881b2e6b17)" fill="#ff7f0e" stroke="#ff7f0e">
          <use xlink:href="#m2f1d957fc5" x="37.711" y="108.615"/>
          <use xlink:href="#m2f1d957fc5" x="52.059" y="108.904"/>
          <use xlink:href="#m2f1d957fc5" x="66.407" y="109.317"/>
          <use xlink:href="#m2f1d957fc5" x="80.755" y="109.22"/>
          <use xlink:href="#m2f1d957fc5" x="95.103" y="109.708"/>
          <use xlink:href="#m2f1d957fc5" x="109.45" y="109.513"/>
          <use xlink:href="#m2f1d957fc5" x="123.798" y="109.7"/>
          <use xlink:href="#m2f1d957fc5" x="138.146" y="109.942"/>
          <use xlink:href="#m2f1d957fc5" x="152.494" y="109.732"/>
          <use xlink:href="#m2f1d957fc5" x="166.842" y="109.824"/>
        </g>
      </g>
      <g id="line2d_21">
        <path d="M37.711 112.575l14.348-5.03 14.348-2.315 14.348-2.192 14.348-.626 14.347-.923 14.348-.97 14.348-.264 14.348-1.41 14.348.228" clip-path="url(#p881b2e6b17)" fill="none" stroke-dasharray=".75,.75" stroke="#2ca02c"/>
        <defs>
          <path id="m24bf662d63" d="M0 1.5l1.5-3h-3z" stroke="#2ca02c" stroke-linejoin="miter"/>
        </defs>
        <g clip-path="url(#p881b2e6b17)" fill="#2ca02c" stroke="#2ca02c">
          <use xlink:href="#m24bf662d63" x="37.711" y="112.575"/>
          <use xlink:href="#m24bf662d63" x="52.059" y="107.545"/>
          <use xlink:href="#m24bf662d63" x="66.407" y="105.23"/>
          <use xlink:href="#m24bf662d63" x="80.755" y="103.038"/>
          <use xlink:href="#m24bf662d63" x="95.103" y="102.412"/>
          <use xlink:href="#m24bf662d63" x="109.45" y="101.489"/>
          <use xlink:href="#m24bf662d63" x="123.798" y="100.519"/>
          <use xlink:href="#m24bf662d63" x="138.146" y="100.255"/>
          <use xlink:href="#m24bf662d63" x="152.494" y="98.846"/>
          <use xlink:href="#m24bf662d63" x="166.842" y="99.073"/>
        </g>
      </g>
      <path d="M31.255 117.11V17.32" fill="none" stroke="#000" stroke-width=".8" stroke-linecap="square" id="patch_3"/>
      <path d="M173.298 117.11V17.32" fill="none" stroke="#000" stroke-width=".8" stroke-linecap="square" id="patch_4"/>
      <path d="M31.255 117.11h142.043" fill="none" stroke="#000" stroke-width=".8" stroke-linecap="square" id="patch_5"/>
      <path d="M31.255 17.319h142.043" fill="none" stroke="#000" stroke-width=".8" stroke-linecap="square" id="patch_6"/>
      <g id="legend_1">
        <path d="M122.758 81.927h45.64q1.4 0 1.4-1.4V53.903q0-1.4-1.4-1.4h-45.64q-1.4 0-1.4 1.4v26.624q0 1.4 1.4 1.4z" fill="#fff" opacity=".8" stroke="#ccc" id="patch_7"/>
        <g id="line2d_22">
          <path d="M124.158 58.172h14" fill="none" stroke="#1f77b4" stroke-linecap="square"/>
          <use xlink:href="#m05a9ecb041" x="131.158" y="58.172" fill="#1f77b4" stroke="#1f77b4"/>
        </g>
        <g transform="matrix(.07 0 0 -.07 143.758 60.622)" id="text_14">
          <defs>
            <path id="DejaVuSans-72" d="M2631 2963q-97 56-211 82-114 27-251 27-488 0-749-317t-261-911V0H581v3500h578v-544q182 319 472 473 291 155 707 155 59 0 131-8 72-7 159-23l3-590z" transform="scale(.01563)"/>
            <path id="DejaVuSans-64" d="M2906 2969v1894h575V0h-575v525q-181-312-458-464-276-152-664-152-634 0-1033 506-398 507-398 1332t398 1331q399 506 1033 506 388 0 664-152 277-151 458-463zM947 1747q0-634 261-995t717-361q456 0 718 361 263 361 263 995t-263 995q-262 361-718 361t-717-361q-261-361-261-995z" transform="scale(.01563)"/>
            <path id="DejaVuSans-69" d="M603 3500h575V0H603v3500zm0 1363h575v-729H603v729z" transform="scale(.01563)"/>
          </defs>
          <use xlink:href="#DejaVuSans-73"/>
          <use xlink:href="#DejaVuSans-65" x="52.1"/>
          <use xlink:href="#DejaVuSans-72" x="113.623"/>
          <use xlink:href="#DejaVuSans-64" x="152.986"/>
          <use xlink:href="#DejaVuSans-69" x="216.463"/>
        </g>
        <g id="line2d_23">
          <path d="M124.158 66.696h14" fill="none" stroke-dasharray="2,.75" stroke="#ff7f0e"/>
          <use xlink:href="#m2f1d957fc5" x="131.158" y="66.696" fill="#ff7f0e" stroke="#ff7f0e"/>
        </g>
        <g transform="matrix(.07 0 0 -.07 143.758 69.146)" id="text_15">
          <defs>
            <path id="DejaVuSans-70" d="M1159 525v-1856H581v4831h578v-531q182 312 458 463 277 152 661 152 638 0 1036-506 399-506 399-1331T3314 415Q2916-91 2278-91q-384 0-661 152-276 152-458 464zm1957 1222q0 634-261 995t-717 361q-457 0-718-361t-261-995q0-634 261-995t718-361q456 0 717 361t261 995z" transform="scale(.01563)"/>
          </defs>
          <use xlink:href="#DejaVuSans-72"/>
          <use xlink:href="#DejaVuSans-61" x="41.113"/>
          <use xlink:href="#DejaVuSans-70" x="102.393"/>
          <use xlink:href="#DejaVuSans-70" x="165.869"/>
          <use xlink:href="#DejaVuSans-65" x="229.346"/>
          <use xlink:href="#DejaVuSans-72" x="290.869"/>
        </g>
        <g id="line2d_24">
          <path d="M124.158 75.221h14" fill="none" stroke-dasharray=".75,.75" stroke="#2ca02c"/>
          <use xlink:href="#m24bf662d63" x="131.158" y="75.221" fill="#2ca02c" stroke="#2ca02c"/>
        </g>
        <g transform="matrix(.07 0 0 -.07 143.758 77.671)" id="text_16">
          <defs>
            <path id="DejaVuSans-6f" d="M1959 3097q-462 0-731-361t-269-989q0-628 267-989 268-361 733-361 460 0 728 362 269 363 269 988 0 622-269 986-268 364-728 364zm0 487q750 0 1178-488 429-487 429-1349 0-859-429-1349Q2709-91 1959-91q-753 0-1180 489-426 490-426 1349 0 862 426 1349 427 488 1180 488z" transform="scale(.01563)"/>
          </defs>
          <use xlink:href="#DejaVuSans-72"/>
          <use xlink:href="#DejaVuSans-69" x="41.113"/>
          <use xlink:href="#DejaVuSans-6f" x="68.896"/>
          <use xlink:href="#DejaVuSans-74" x="130.078"/>
        </g>
      </g>
    </g>
  </g>
  <defs>
    <clipPath id="p881b2e6b17">
      <path d="M31.255 17.319h142.044v99.792H31.255z"/>
    </clipPath>
  </defs>
</svg>
