<svg xmlns:xlink="http://www.w3.org/1999/xlink" width="252.024" height="200.88" viewBox="0 0 189.018 150.66" xmlns="http://www.w3.org/2000/svg">
  <defs>
    <style>
      *{stroke-linejoin:round;stroke-linecap:butt}
    </style>
  </defs>
  <g id="figure_1">
    <path d="M0 150.66h189.018V0H0z" fill="#fff" id="patch_1"/>
    <g id="axes_1">
      <path d="M37.975 117.11h142.043V17.32H37.975z" fill="#fff" id="patch_2"/>
      <g id="matplotlib.axis_1">
        <g id="xtick_1">
          <path d="M44.431 117.11V17.32" clip-path="url(#ped76838f68)" fill="none" stroke-dasharray=".05,.4" stroke="#000" stroke-width=".25" id="line2d_1"/>
          <g id="line2d_2">
            <defs>
              <path id="ma4d2dccd2c" d="M0 0v3.5" stroke="#000" stroke-width=".75"/>
            </defs>
            <use xlink:href="#ma4d2dccd2c" x="44.431" y="117.111" stroke="#000" stroke-width=".75"/>
          </g>
          <g transform="matrix(.07 0 0 -.07 38.831 129.43)" id="text_1">
            <defs>
              <path id="DejaVuSans-30" d="M2034 4250q-487 0-733-480-245-479-245-1442 0-959 245-1439 246-480 733-480 491 0 736 480 246 480 246 1439 0 963-246 1442-245 480-736 480zm0 500q785 0 1199-621 414-620 414-1801 0-1178-414-1799Q2819-91 2034-91q-784 0-1198 620-414 621-414 1799 0 1181 414 1801 414 621 1198 621z" transform="scale(.01563)"/>
              <path id="DejaVuSans-2e" d="M684 794h660V0H684v794z" transform="scale(.01563)"/>
              <path id="DejaVuSans-35" d="M691 4666h2478v-532H1269V2991q137 47 274 70 138 23 276 23 781 0 1237-428 457-428 457-1159 0-753-469-1171Q2575-91 1722-91q-294 0-599 50Q819 9 494 109v635q281-153 581-228t634-75q541 0 856 284 316 284 316 772 0 487-316 771-315 285-856 285-253 0-505-56-251-56-513-175v2344z" transform="scale(.01563)"/>
            </defs>
            <use xlink:href="#DejaVuSans-30" transform="translate(0 .781)"/>
            <use xlink:href="#DejaVuSans-2e" transform="translate(63.623 .781)"/>
            <use xlink:href="#DejaVuSans-35" transform="translate(95.41 .781)"/>
          </g>
        </g>
        <g id="xtick_2">
          <path d="M70.257 117.11V17.32" clip-path="url(#ped76838f68)" fill="none" stroke-dasharray=".05,.4" stroke="#000" stroke-width=".25" id="line2d_3"/>
          <use xlink:href="#ma4d2dccd2c" x="70.257" y="117.111" stroke="#000" stroke-width=".75" id="line2d_4"/>
          <g transform="matrix(.07 0 0 -.07 64.657 129.43)" id="text_2">
            <defs>
              <path id="DejaVuSans-31" d="M794 531h1031v3560L703 3866v575l1116 225h631V531h1031V0H794v531z" transform="scale(.01563)"/>
            </defs>
            <use xlink:href="#DejaVuSans-31" transform="translate(0 .781)"/>
            <use xlink:href="#DejaVuSans-2e" transform="translate(63.623 .781)"/>
            <use xlink:href="#DejaVuSans-30" transform="translate(95.41 .781)"/>
          </g>
        </g>
        <g id="xtick_3">
          <path d="M96.083 117.11V17.32" clip-path="url(#ped76838f68)" fill="none" stroke-dasharray=".05,.4" stroke="#000" stroke-width=".25" id="line2d_5"/>
          <use xlink:href="#ma4d2dccd2c" x="96.083" y="117.111" stroke="#000" stroke-width=".75" id="line2d_6"/>
          <g transform="matrix(.07 0 0 -.07 90.483 129.43)" id="text_3">
            <use xlink:href="#DejaVuSans-31" transform="translate(0 .094)"/>
            <use xlink:href="#DejaVuSans-2e" transform="translate(63.623 .094)"/>
            <use xlink:href="#DejaVuSans-35" transform="translate(95.41 .094)"/>
          </g>
        </g>
        <g id="xtick_4">
          <path d="M121.91 117.11V17.32" clip-path="url(#ped76838f68)" fill="none" stroke-dasharray=".05,.4" stroke="#000" stroke-width=".25" id="line2d_7"/>
          <use xlink:href="#ma4d2dccd2c" x="121.91" y="117.111" stroke="#000" stroke-width=".75" id="line2d_8"/>
          <g transform="matrix(.07 0 0 -.07 116.31 129.43)" id="text_4">
            <defs>
              <path id="DejaVuSans-32" d="M1228 531h2203V0H469v531q359 372 979 998 621 627 780 809 303 340 423 576 121 236 121 464 0 372-261 606-261 235-680 235-297 0-627-103-329-103-704-313v638q381 153 712 231 332 78 607 78 725 0 1156-363 431-362 431-968 0-288-108-546-107-257-392-607-78-91-497-524-418-433-1181-1211z" transform="scale(.01563)"/>
            </defs>
            <use xlink:href="#DejaVuSans-32" transform="translate(0 .781)"/>
            <use xlink:href="#DejaVuSans-2e" transform="translate(63.623 .781)"/>
            <use xlink:href="#DejaVuSans-30" transform="translate(95.41 .781)"/>
          </g>
        </g>
        <g id="xtick_5">
          <path d="M147.736 117.11V17.32" clip-path="url(#ped76838f68)" fill="none" stroke-dasharray=".05,.4" stroke="#000" stroke-width=".25" id="line2d_9"/>
          <use xlink:href="#ma4d2dccd2c" x="147.736" y="117.111" stroke="#000" stroke-width=".75" id="line2d_10"/>
          <g transform="matrix(.07 0 0 -.07 142.136 129.43)" id="text_5">
            <use xlink:href="#DejaVuSans-32" transform="translate(0 .781)"/>
            <use xlink:href="#DejaVuSans-2e" transform="translate(63.623 .781)"/>
            <use xlink:href="#DejaVuSans-35" transform="translate(95.41 .781)"/>
          </g>
        </g>
        <g id="xtick_6">
          <path d="M173.562 117.11V17.32" clip-path="url(#ped76838f68)" fill="none" stroke-dasharray=".05,.4" stroke="#000" stroke-width=".25" id="line2d_11"/>
          <use xlink:href="#ma4d2dccd2c" x="173.562" y="117.111" stroke="#000" stroke-width=".75" id="line2d_12"/>
          <g transform="matrix(.07 0 0 -.07 167.962 129.43)" id="text_6">
            <defs>
              <path id="DejaVuSans-33" d="M2597 2516q453-97 707-404 255-306 255-756 0-690-475-1069Q2609-91 1734-91q-293 0-604 58T488 141v609q262-153 574-231 313-78 654-78 593 0 904 234t311 681q0 413-289 645-289 233-804 233h-544v519h569q465 0 712 186t247 536q0 359-255 551-254 193-729 193-260 0-557-57-297-56-653-174v562q360 100 674 150t592 50q719 0 1137-327 419-326 419-882 0-388-222-655t-631-370z" transform="scale(.01563)"/>
            </defs>
            <use xlink:href="#DejaVuSans-33" transform="translate(0 .781)"/>
            <use xlink:href="#DejaVuSans-2e" transform="translate(63.623 .781)"/>
            <use xlink:href="#DejaVuSans-30" transform="translate(95.41 .781)"/>
          </g>
        </g>
        <g transform="matrix(.07 0 0 -.07 88.756 140.204)" id="text_7">
          <defs>
            <path id="DejaVuSans-53" d="M3425 4513v-616q-359 172-678 256-319 85-616 85-515 0-795-200t-280-569q0-310 186-468 186-157 705-254l381-78q706-135 1042-474t336-907q0-679-455-1029Q2797-91 1919-91q-331 0-705 75-373 75-773 222v650q384-215 753-325 369-109 725-109 540 0 834 212 294 213 294 607 0 343-211 537t-692 291l-385 75q-706 140-1022 440-315 300-315 835 0 619 436 975t1201 356q329 0 669-60 341-59 697-177z" transform="scale(.01563)"/>
            <path id="DejaVuSans-74" d="M1172 4494v-994h1184v-447H1172V1153q0-428 117-550t477-122h590V0h-590q-666 0-919 248-253 249-253 905v1900H172v447h422v994h578z" transform="scale(.01563)"/>
            <path id="DejaVuSans-61" d="M2194 1759q-697 0-966-159t-269-544q0-306 202-486 202-179 548-179 479 0 768 339t289 901v128h-572zm1147 238V0h-575v531q-197-318-491-470T1556-91q-537 0-855 302-317 302-317 808 0 590 395 890 396 300 1180 300h807v57q0 397-261 614t-733 217q-300 0-585-72-284-72-546-216v532q315 122 612 182 297 61 578 61 760 0 1135-394 375-393 375-1193z" transform="scale(.01563)"/>
            <path id="DejaVuSans-65" d="M3597 1894v-281H953q38-594 358-905t892-311q331 0 642 81t618 244V178Q3153 47 2828-22t-659-69q-838 0-1327 487-489 488-489 1320 0 859 464 1363 464 505 1252 505 706 0 1117-455 411-454 411-1235zm-575 169q-6 471-264 752-258 282-683 282-481 0-770-272t-333-766l2050 4z" transform="scale(.01563)"/>
            <path id="DejaVuSans-6d" d="M3328 2828q216 388 516 572t706 184q547 0 844-383 297-382 297-1088V0h-578v2094q0 503-179 746-178 244-543 244-447 0-707-297-259-296-259-809V0h-578v2094q0 506-178 748t-550 242q-441 0-701-298-259-298-259-808V0H581v3500h578v-544q197 322 472 475t653 153q382 0 649-194 267-193 395-562z" transform="scale(.01563)"/>
            <path id="DejaVuSans-6e" d="M3513 2113V0h-575v2094q0 497-194 743-194 247-581 247-466 0-735-297-269-296-269-809V0H581v3500h578v-544q207 316 486 472 280 156 646 156 603 0 912-373 310-373 310-1098z" transform="scale(.01563)"/>
            <path id="DejaVuSans-73" d="M2834 3397v-544q-243 125-506 187-262 63-544 63-428 0-642-131t-214-394q0-200 153-314t616-217l197-44q612-131 870-370t258-667q0-488-386-773Q2250-91 1575-91q-281 0-586 55T347 128v594q319-166 628-249 309-82 613-82 406 0 624 139 219 139 219 392 0 234-158 359-157 125-692 241l-200 47q-534 112-772 345-237 233-237 639 0 494 350 762 350 269 994 269 318 0 599-47 282-46 519-140z" transform="scale(.01563)"/>
          </defs>
          <use xlink:href="#DejaVuSans-53"/>
          <use xlink:href="#DejaVuSans-74" x="63.477"/>
          <use xlink:href="#DejaVuSans-61" x="102.686"/>
          <use xlink:href="#DejaVuSans-74" x="163.965"/>
          <use xlink:href="#DejaVuSans-65" x="203.174"/>
          <use xlink:href="#DejaVuSans-6d" x="264.697"/>
          <use xlink:href="#DejaVuSans-65" x="362.109"/>
          <use xlink:href="#DejaVuSans-6e" x="423.633"/>
          <use xlink:href="#DejaVuSans-74" x="487.012"/>
          <use xlink:href="#DejaVuSans-73" x="526.221"/>
        </g>
        <g transform="matrix(.07 0 0 -.07 161.818 139.204)" id="text_8">
          <defs>
            <path id="DejaVuSans-d7" d="M4488 3438L3059 2003 4488 575l-372-378-1435 1434L1247 197 878 575l1425 1428L878 3438l369 378 1434-1435 1435 1435 372-378z" transform="scale(.01563)"/>
            <path id="DejaVuSans-36" d="M2113 2584q-425 0-674-291-248-290-248-796 0-503 248-796 249-292 674-292t673 292q248 293 248 796 0 506-248 796-248 291-673 291zm1253 1979v-575q-238 112-480 171-242 60-480 60-625 0-955-422-329-422-376-1275 184 272 462 417 279 145 613 145 703 0 1111-427 408-426 408-1160 0-719-425-1154Q2819-91 2113-91q-810 0-1238 620-428 621-428 1799 0 1106 525 1764t1409 658q238 0 480-47t505-140z" transform="scale(.01563)"/>
          </defs>
          <use xlink:href="#DejaVuSans-d7" transform="translate(0 .766)"/>
          <use xlink:href="#DejaVuSans-31" transform="translate(83.79 .766)"/>
          <use xlink:href="#DejaVuSans-30" transform="translate(147.412 .766)"/>
          <use xlink:href="#DejaVuSans-36" transform="matrix(.7 0 0 .7 211.992 39.047)"/>
        </g>
      </g>
      <g id="matplotlib.axis_2">
        <g id="ytick_1">
          <path d="M37.975 117.11h142.043" clip-path="url(#ped76838f68)" fill="none" stroke-dasharray=".05,.4" stroke="#000" stroke-width=".25" id="line2d_13"/>
          <g id="line2d_14">
            <defs>
              <path id="mb89c9bd36d" d="M0 0h-3.5" stroke="#000" stroke-width=".75"/>
            </defs>
            <use xlink:href="#mb89c9bd36d" x="37.975" y="117.111" stroke="#000" stroke-width=".75"/>
          </g>
          <g transform="matrix(.07 0 0 -.07 19.775 119.77)" id="text_9">
            <use xlink:href="#DejaVuSans-30" transform="translate(0 .781)"/>
            <use xlink:href="#DejaVuSans-2e" transform="translate(63.623 .781)"/>
            <use xlink:href="#DejaVuSans-30" transform="translate(95.41 .781)"/>
          </g>
        </g>
        <g id="ytick_2">
          <path d="M37.975 98.72h142.043" clip-path="url(#ped76838f68)" fill="none" stroke-dasharray=".05,.4" stroke="#000" stroke-width=".25" id="line2d_15"/>
          <use xlink:href="#mb89c9bd36d" x="37.975" y="98.721" stroke="#000" stroke-width=".75" id="line2d_16"/>
          <g transform="matrix(.07 0 0 -.07 19.775 101.38)" id="text_10">
            <use xlink:href="#DejaVuSans-30" transform="translate(0 .781)"/>
            <use xlink:href="#DejaVuSans-2e" transform="translate(63.623 .781)"/>
            <use xlink:href="#DejaVuSans-35" transform="translate(95.41 .781)"/>
          </g>
        </g>
        <g id="ytick_3">
          <path d="M37.975 80.33h142.043" clip-path="url(#ped76838f68)" fill="none" stroke-dasharray=".05,.4" stroke="#000" stroke-width=".25" id="line2d_17"/>
          <use xlink:href="#mb89c9bd36d" x="37.975" y="80.33" stroke="#000" stroke-width=".75" id="line2d_18"/>
          <g transform="matrix(.07 0 0 -.07 19.775 82.99)" id="text_11">
            <use xlink:href="#DejaVuSans-31" transform="translate(0 .781)"/>
            <use xlink:href="#DejaVuSans-2e" transform="translate(63.623 .781)"/>
            <use xlink:href="#DejaVuSans-30" transform="translate(95.41 .781)"/>
          </g>
        </g>
        <g id="ytick_4">
          <path d="M37.975 61.94h142.043" clip-path="url(#ped76838f68)" fill="none" stroke-dasharray=".05,.4" stroke="#000" stroke-width=".25" id="line2d_19"/>
          <use xlink:href="#mb89c9bd36d" x="37.975" y="61.94" stroke="#000" stroke-width=".75" id="line2d_20"/>
          <g transform="matrix(.07 0 0 -.07 19.775 64.6)" id="text_12">
            <use xlink:href="#DejaVuSans-31" transform="translate(0 .094)"/>
            <use xlink:href="#DejaVuSans-2e" transform="translate(63.623 .094)"/>
            <use xlink:href="#DejaVuSans-35" transform="translate(95.41 .094)"/>
          </g>
        </g>
        <g id="ytick_5">
          <path d="M37.975 43.55h142.043" clip-path="url(#ped76838f68)" fill="none" stroke-dasharray=".05,.4" stroke="#000" stroke-width=".25" id="line2d_21"/>
          <use xlink:href="#mb89c9bd36d" x="37.975" y="43.55" stroke="#000" stroke-width=".75" id="line2d_22"/>
          <g transform="matrix(.07 0 0 -.07 19.775 46.21)" id="text_13">
            <use xlink:href="#DejaVuSans-32" transform="translate(0 .781)"/>
            <use xlink:href="#DejaVuSans-2e" transform="translate(63.623 .781)"/>
            <use xlink:href="#DejaVuSans-30" transform="translate(95.41 .781)"/>
          </g>
        </g>
        <g id="ytick_6">
          <path d="M37.975 25.16h142.043" clip-path="url(#ped76838f68)" fill="none" stroke-dasharray=".05,.4" stroke="#000" stroke-width=".25" id="line2d_23"/>
          <use xlink:href="#mb89c9bd36d" x="37.975" y="25.16" stroke="#000" stroke-width=".75" id="line2d_24"/>
          <g transform="matrix(.07 0 0 -.07 19.775 27.819)" id="text_14">
            <use xlink:href="#DejaVuSans-32" transform="translate(0 .781)"/>
            <use xlink:href="#DejaVuSans-2e" transform="translate(63.623 .781)"/>
            <use xlink:href="#DejaVuSans-35" transform="translate(95.41 .781)"/>
          </g>
        </g>
        <g transform="matrix(0 -.07 -.07 0 14.319 81.445)" id="text_15">
          <defs>
            <path id="DejaVuSans-54" d="M-19 4666h3947v-532H2272V0h-634v4134H-19v532z" transform="scale(.01563)"/>
            <path id="DejaVuSans-69" d="M603 3500h575V0H603v3500zm0 1363h575v-729H603v729z" transform="scale(.01563)"/>
            <path id="DejaVuSans-28" d="M1984 4856q-418-718-622-1422-203-703-203-1425 0-721 205-1429t620-1424h-500Q1016-109 783 600T550 2009q0 697 231 1403 232 707 703 1444h500z" transform="scale(.01563)"/>
            <path id="DejaVuSans-29" d="M513 4856h500q468-737 701-1444 233-706 233-1403 0-700-233-1409T1013-844H513q415 716 620 1424t205 1429q0 722-205 1425-205 704-620 1422z" transform="scale(.01563)"/>
          </defs>
          <use xlink:href="#DejaVuSans-54"/>
          <use xlink:href="#DejaVuSans-69" x="57.959"/>
          <use xlink:href="#DejaVuSans-6d" x="85.742"/>
          <use xlink:href="#DejaVuSans-65" x="183.154"/>
          <use xlink:href="#DejaVuSans-20" x="244.678"/>
          <use xlink:href="#DejaVuSans-28" x="276.465"/>
          <use xlink:href="#DejaVuSans-73" x="315.479"/>
          <use xlink:href="#DejaVuSans-29" x="367.578"/>
        </g>
        <g transform="matrix(.07 0 0 -.07 37.975 14.319)" id="text_16">
          <use xlink:href="#DejaVuSans-d7" transform="translate(0 .684)"/>
          <use xlink:href="#DejaVuSans-31" transform="translate(83.79 .684)"/>
          <use xlink:href="#DejaVuSans-30" transform="translate(147.412 .684)"/>
          <use xlink:href="#DejaVuSans-31" transform="matrix(.7 0 0 .7 211.992 38.966)"/>
        </g>
      </g>
      <g id="line2d_25">
        <path d="M44.431 114.904l25.826-2.317 25.826-2.06 25.827-2.427 25.826-1.803 25.826-2.096" clip-path="url(#ped76838f68)" fill="none" stroke="#1f77b4" stroke-linecap="square"/>
        <defs>
          <path id="m2ed1c57d17" d="M0 1.5a1.5 1.5 0 100-3 1.5 1.5 0 000 3z" stroke="#1f77b4"/>
        </defs>
        <g clip-path="url(#ped76838f68)" fill="#1f77b4" stroke="#1f77b4">
          <use xlink:href="#m2ed1c57d17" x="44.431" y="114.904"/>
          <use xlink:href="#m2ed1c57d17" x="70.257" y="112.587"/>
          <use xlink:href="#m2ed1c57d17" x="96.083" y="110.527"/>
          <use xlink:href="#m2ed1c57d17" x="121.91" y="108.1"/>
          <use xlink:href="#m2ed1c57d17" x="147.736" y="106.297"/>
          <use xlink:href="#m2ed1c57d17" x="173.562" y="104.201"/>
        </g>
      </g>
      <g id="line2d_26">
        <path d="M44.431 101.92l25.826-16.256 25.826-15.228 25.827-17.912 25.826-14.638 25.826-18.133" clip-path="url(#ped76838f68)" fill="none" stroke-dasharray="2,.75" stroke="#ff7f0e"/>
        <defs>
          <path id="m78bb2d44e0" d="M-1.5 1.5h3v-3h-3z" stroke="#ff7f0e" stroke-linejoin="miter"/>
        </defs>
        <g clip-path="url(#ped76838f68)" fill="#ff7f0e" stroke="#ff7f0e">
          <use xlink:href="#m78bb2d44e0" x="44.431" y="101.921"/>
          <use xlink:href="#m78bb2d44e0" x="70.257" y="85.664"/>
          <use xlink:href="#m78bb2d44e0" x="96.083" y="70.436"/>
          <use xlink:href="#m78bb2d44e0" x="121.91" y="52.524"/>
          <use xlink:href="#m78bb2d44e0" x="147.736" y="37.886"/>
          <use xlink:href="#m78bb2d44e0" x="173.562" y="19.753"/>
        </g>
      </g>
      <g id="line2d_27">
        <path d="M44.431 75.733l25.826-9.526 25.826-6.694L121.91 49.14l25.826-8.827 25.826-7.944" clip-path="url(#ped76838f68)" fill="none" stroke-dasharray=".75,.75" stroke="#2ca02c"/>
        <defs>
          <path id="m73b2b4440e" d="M0 1.5l1.5-3h-3z" stroke="#2ca02c" stroke-linejoin="miter"/>
        </defs>
        <g clip-path="url(#ped76838f68)" fill="#2ca02c" stroke="#2ca02c">
          <use xlink:href="#m73b2b4440e" x="44.431" y="75.733"/>
          <use xlink:href="#m73b2b4440e" x="70.257" y="66.207"/>
          <use xlink:href="#m73b2b4440e" x="96.083" y="59.513"/>
          <use xlink:href="#m73b2b4440e" x="121.91" y="49.14"/>
          <use xlink:href="#m73b2b4440e" x="147.736" y="40.313"/>
          <use xlink:href="#m73b2b4440e" x="173.562" y="32.369"/>
        </g>
      </g>
      <path d="M37.975 117.11V17.32" fill="none" stroke="#000" stroke-width=".8" stroke-linecap="square" id="patch_3"/>
      <path d="M180.018 117.11V17.32" fill="none" stroke="#000" stroke-width=".8" stroke-linecap="square" id="patch_4"/>
      <path d="M37.975 117.11h142.043" fill="none" stroke="#000" stroke-width=".8" stroke-linecap="square" id="patch_5"/>
      <path d="M37.975 17.319h142.043" fill="none" stroke="#000" stroke-width=".8" stroke-linecap="square" id="patch_6"/>
      <g id="legend_1">
        <path d="M42.875 50.243h45.64q1.4 0 1.4-1.4V22.219q0-1.4-1.4-1.4h-45.64q-1.4 0-1.4 1.4v26.624q0 1.4 1.4 1.4z" fill="#fff" opacity=".8" stroke="#ccc" id="patch_7"/>
        <g id="line2d_28">
          <path d="M44.275 26.488h14" fill="none" stroke="#1f77b4" stroke-linecap="square"/>
          <use xlink:href="#m2ed1c57d17" x="51.275" y="26.488" fill="#1f77b4" stroke="#1f77b4"/>
        </g>
        <g transform="matrix(.07 0 0 -.07 63.875 28.938)" id="text_17">
          <defs>
            <path id="DejaVuSans-72" d="M2631 2963q-97 56-211 82-114 27-251 27-488 0-749-317t-261-911V0H581v3500h578v-544q182 319 472 473 291 155 707 155 59 0 131-8 72-7 159-23l3-590z" transform="scale(.01563)"/>
            <path id="DejaVuSans-64" d="M2906 2969v1894h575V0h-575v525q-181-312-458-464-276-152-664-152-634 0-1033 506-398 507-398 1332t398 1331q399 506 1033 506 388 0 664-152 277-151 458-463zM947 1747q0-634 261-995t717-361q456 0 718 361 263 361 263 995t-263 995q-262 361-718 361t-717-361q-261-361-261-995z" transform="scale(.01563)"/>
          </defs>
          <use xlink:href="#DejaVuSans-73"/>
          <use xlink:href="#DejaVuSans-65" x="52.1"/>
          <use xlink:href="#DejaVuSans-72" x="113.623"/>
          <use xlink:href="#DejaVuSans-64" x="152.986"/>
          <use xlink:href="#DejaVuSans-69" x="216.463"/>
        </g>
        <g id="line2d_29">
          <path d="M44.275 35.013h14" fill="none" stroke-dasharray="2,.75" stroke="#ff7f0e"/>
          <use xlink:href="#m78bb2d44e0" x="51.275" y="35.013" fill="#ff7f0e" stroke="#ff7f0e"/>
        </g>
        <g transform="matrix(.07 0 0 -.07 63.875 37.462)" id="text_18">
          <defs>
            <path id="DejaVuSans-70" d="M1159 525v-1856H581v4831h578v-531q182 312 458 463 277 152 661 152 638 0 1036-506 399-506 399-1331T3314 415Q2916-91 2278-91q-384 0-661 152-276 152-458 464zm1957 1222q0 634-261 995t-717 361q-457 0-718-361t-261-995q0-634 261-995t718-361q456 0 717 361t261 995z" transform="scale(.01563)"/>
          </defs>
          <use xlink:href="#DejaVuSans-72"/>
          <use xlink:href="#DejaVuSans-61" x="41.113"/>
          <use xlink:href="#DejaVuSans-70" x="102.393"/>
          <use xlink:href="#DejaVuSans-70" x="165.869"/>
          <use xlink:href="#DejaVuSans-65" x="229.346"/>
          <use xlink:href="#DejaVuSans-72" x="290.869"/>
        </g>
        <g id="line2d_30">
          <path d="M44.275 43.537h14" fill="none" stroke-dasharray=".75,.75" stroke="#2ca02c"/>
          <use xlink:href="#m73b2b4440e" x="51.275" y="43.537" fill="#2ca02c" stroke="#2ca02c"/>
        </g>
        <g transform="matrix(.07 0 0 -.07 63.875 45.987)" id="text_19">
          <defs>
            <path id="DejaVuSans-6f" d="M1959 3097q-462 0-731-361t-269-989q0-628 267-989 268-361 733-361 460 0 728 362 269 363 269 988 0 622-269 986-268 364-728 364zm0 487q750 0 1178-488 429-487 429-1349 0-859-429-1349Q2709-91 1959-91q-753 0-1180 489-426 490-426 1349 0 862 426 1349 427 488 1180 488z" transform="scale(.01563)"/>
          </defs>
          <use xlink:href="#DejaVuSans-72"/>
          <use xlink:href="#DejaVuSans-69" x="41.113"/>
          <use xlink:href="#DejaVuSans-6f" x="68.896"/>
          <use xlink:href="#DejaVuSans-74" x="130.078"/>
        </g>
      </g>
    </g>
  </g>
  <defs>
    <clipPath id="ped76838f68">
      <path d="M37.975 17.319h142.044v99.792H37.975z"/>
    </clipPath>
  </defs>
</svg>
